<mxfile host="app.diagrams.net" modified="2024-05-06T18:56:44.179Z" agent="Mozilla/5.0 (X11; Linux x86_64; rv:125.0) Gecko/20100101 Firefox/125.0" etag="ejPJ5uy4PQxQ14LeFD8e" version="24.3.1" type="device">
  <diagram id="C5RBs43oDa-KdzZeNtuy" name="Page-1">
    <mxGraphModel dx="2261" dy="767" grid="1" gridSize="10" guides="1" tooltips="1" connect="1" arrows="1" fold="1" page="1" pageScale="1" pageWidth="827" pageHeight="1169" math="0" shadow="0">
      <root>
        <mxCell id="WIyWlLk6GJQsqaUBKTNV-0" />
        <mxCell id="WIyWlLk6GJQsqaUBKTNV-1" parent="WIyWlLk6GJQsqaUBKTNV-0" />
        <mxCell id="018Bsw0D69tQ_3L02aNU-18" style="edgeStyle=orthogonalEdgeStyle;rounded=0;orthogonalLoop=1;jettySize=auto;html=1;exitX=0.5;exitY=1;exitDx=0;exitDy=0;endArrow=none;endFill=0;" parent="WIyWlLk6GJQsqaUBKTNV-1" source="WIyWlLk6GJQsqaUBKTNV-3" target="018Bsw0D69tQ_3L02aNU-10" edge="1">
          <mxGeometry relative="1" as="geometry">
            <Array as="points">
              <mxPoint x="-10" y="130" />
              <mxPoint x="-10" y="130" />
            </Array>
          </mxGeometry>
        </mxCell>
        <mxCell id="WIyWlLk6GJQsqaUBKTNV-3" value="Developer pushes commit" style="rounded=1;whiteSpace=wrap;html=1;fontSize=12;glass=0;strokeWidth=1;shadow=0;" parent="WIyWlLk6GJQsqaUBKTNV-1" vertex="1">
          <mxGeometry x="-70" y="30" width="120" height="40" as="geometry" />
        </mxCell>
        <mxCell id="018Bsw0D69tQ_3L02aNU-19" style="edgeStyle=orthogonalEdgeStyle;rounded=0;orthogonalLoop=1;jettySize=auto;html=1;exitX=0.5;exitY=1;exitDx=0;exitDy=0;entryX=0.5;entryY=0;entryDx=0;entryDy=0;endArrow=none;endFill=0;" parent="WIyWlLk6GJQsqaUBKTNV-1" source="018Bsw0D69tQ_3L02aNU-69" target="018Bsw0D69tQ_3L02aNU-70" edge="1">
          <mxGeometry relative="1" as="geometry">
            <mxPoint x="240" y="90" as="sourcePoint" />
            <mxPoint x="240" y="770" as="targetPoint" />
          </mxGeometry>
        </mxCell>
        <mxCell id="018Bsw0D69tQ_3L02aNU-20" style="edgeStyle=orthogonalEdgeStyle;rounded=0;orthogonalLoop=1;jettySize=auto;html=1;exitX=0.5;exitY=1;exitDx=0;exitDy=0;entryX=0.5;entryY=0;entryDx=0;entryDy=0;endArrow=none;endFill=0;" parent="WIyWlLk6GJQsqaUBKTNV-1" source="WIyWlLk6GJQsqaUBKTNV-7" target="018Bsw0D69tQ_3L02aNU-14" edge="1">
          <mxGeometry relative="1" as="geometry" />
        </mxCell>
        <mxCell id="WIyWlLk6GJQsqaUBKTNV-7" value="WS CI Bastion" style="rounded=1;whiteSpace=wrap;html=1;fontSize=12;glass=0;strokeWidth=1;shadow=0;" parent="WIyWlLk6GJQsqaUBKTNV-1" vertex="1">
          <mxGeometry x="440" y="30" width="120" height="40" as="geometry" />
        </mxCell>
        <mxCell id="018Bsw0D69tQ_3L02aNU-21" style="edgeStyle=orthogonalEdgeStyle;rounded=0;orthogonalLoop=1;jettySize=auto;html=1;exitX=0.5;exitY=1;exitDx=0;exitDy=0;entryX=0.5;entryY=0;entryDx=0;entryDy=0;endArrow=none;endFill=0;" parent="WIyWlLk6GJQsqaUBKTNV-1" source="WIyWlLk6GJQsqaUBKTNV-12" target="018Bsw0D69tQ_3L02aNU-16" edge="1">
          <mxGeometry relative="1" as="geometry" />
        </mxCell>
        <mxCell id="WIyWlLk6GJQsqaUBKTNV-12" value="VMware API" style="rounded=1;whiteSpace=wrap;html=1;fontSize=12;glass=0;strokeWidth=1;shadow=0;" parent="WIyWlLk6GJQsqaUBKTNV-1" vertex="1">
          <mxGeometry x="700" y="30" width="120" height="40" as="geometry" />
        </mxCell>
        <mxCell id="018Bsw0D69tQ_3L02aNU-22" style="edgeStyle=orthogonalEdgeStyle;rounded=0;orthogonalLoop=1;jettySize=auto;html=1;exitX=0.5;exitY=1;exitDx=0;exitDy=0;endArrow=none;endFill=0;" parent="WIyWlLk6GJQsqaUBKTNV-1" source="018Bsw0D69tQ_3L02aNU-3" target="018Bsw0D69tQ_3L02aNU-17" edge="1">
          <mxGeometry relative="1" as="geometry" />
        </mxCell>
        <mxCell id="018Bsw0D69tQ_3L02aNU-3" value="VM (dom0)" style="rounded=1;whiteSpace=wrap;html=1;fontSize=12;glass=0;strokeWidth=1;shadow=0;" parent="WIyWlLk6GJQsqaUBKTNV-1" vertex="1">
          <mxGeometry x="940" y="30" width="120" height="40" as="geometry" />
        </mxCell>
        <mxCell id="018Bsw0D69tQ_3L02aNU-10" value="Developer pushes commit" style="rounded=1;whiteSpace=wrap;html=1;fontSize=12;glass=0;strokeWidth=1;shadow=0;" parent="WIyWlLk6GJQsqaUBKTNV-1" vertex="1">
          <mxGeometry x="-70" y="790" width="120" height="40" as="geometry" />
        </mxCell>
        <mxCell id="018Bsw0D69tQ_3L02aNU-14" value="WS CI Bastion" style="rounded=1;whiteSpace=wrap;html=1;fontSize=12;glass=0;strokeWidth=1;shadow=0;" parent="WIyWlLk6GJQsqaUBKTNV-1" vertex="1">
          <mxGeometry x="440" y="790" width="120" height="40" as="geometry" />
        </mxCell>
        <mxCell id="018Bsw0D69tQ_3L02aNU-16" value="VMware API" style="rounded=1;whiteSpace=wrap;html=1;fontSize=12;glass=0;strokeWidth=1;shadow=0;" parent="WIyWlLk6GJQsqaUBKTNV-1" vertex="1">
          <mxGeometry x="700" y="790" width="120" height="40" as="geometry" />
        </mxCell>
        <mxCell id="018Bsw0D69tQ_3L02aNU-17" value="VM (dom0)" style="rounded=1;whiteSpace=wrap;html=1;fontSize=12;glass=0;strokeWidth=1;shadow=0;" parent="WIyWlLk6GJQsqaUBKTNV-1" vertex="1">
          <mxGeometry x="940" y="790" width="120" height="40" as="geometry" />
        </mxCell>
        <mxCell id="018Bsw0D69tQ_3L02aNU-23" value="" style="endArrow=classic;html=1;rounded=0;endFill=1;" parent="WIyWlLk6GJQsqaUBKTNV-1" edge="1">
          <mxGeometry width="50" height="50" relative="1" as="geometry">
            <mxPoint x="-10" y="140" as="sourcePoint" />
            <mxPoint x="240" y="140" as="targetPoint" />
          </mxGeometry>
        </mxCell>
        <mxCell id="018Bsw0D69tQ_3L02aNU-71" value="&lt;div&gt;Pushes commit&lt;/div&gt;" style="edgeLabel;html=1;align=center;verticalAlign=middle;resizable=0;points=[];" parent="018Bsw0D69tQ_3L02aNU-23" vertex="1" connectable="0">
          <mxGeometry x="-0.008" y="-3" relative="1" as="geometry">
            <mxPoint y="-3" as="offset" />
          </mxGeometry>
        </mxCell>
        <mxCell id="018Bsw0D69tQ_3L02aNU-26" value="" style="endArrow=classic;html=1;rounded=0;endFill=1;" parent="WIyWlLk6GJQsqaUBKTNV-1" edge="1">
          <mxGeometry width="50" height="50" relative="1" as="geometry">
            <mxPoint x="240" y="140" as="sourcePoint" />
            <mxPoint x="500" y="140" as="targetPoint" />
          </mxGeometry>
        </mxCell>
        <mxCell id="018Bsw0D69tQ_3L02aNU-27" value="&lt;div&gt;Webhook payload delivered&lt;/div&gt;" style="edgeLabel;html=1;align=center;verticalAlign=middle;resizable=0;points=[];" parent="018Bsw0D69tQ_3L02aNU-26" vertex="1" connectable="0">
          <mxGeometry x="-0.2267" y="1" relative="1" as="geometry">
            <mxPoint x="29" as="offset" />
          </mxGeometry>
        </mxCell>
        <mxCell id="018Bsw0D69tQ_3L02aNU-31" value="" style="endArrow=classic;html=1;rounded=0;endFill=1;" parent="WIyWlLk6GJQsqaUBKTNV-1" edge="1">
          <mxGeometry width="50" height="50" relative="1" as="geometry">
            <mxPoint x="500" y="217" as="sourcePoint" />
            <mxPoint x="760" y="217" as="targetPoint" />
          </mxGeometry>
        </mxCell>
        <mxCell id="018Bsw0D69tQ_3L02aNU-32" value="&lt;div&gt;Look for VM with matching Qubes version&lt;br&gt;&lt;/div&gt;" style="edgeLabel;html=1;align=center;verticalAlign=middle;resizable=0;points=[];" parent="018Bsw0D69tQ_3L02aNU-31" vertex="1" connectable="0">
          <mxGeometry x="-0.2267" y="1" relative="1" as="geometry">
            <mxPoint x="29" y="1" as="offset" />
          </mxGeometry>
        </mxCell>
        <mxCell id="018Bsw0D69tQ_3L02aNU-36" value="" style="endArrow=classic;html=1;rounded=0;endFill=1;" parent="WIyWlLk6GJQsqaUBKTNV-1" edge="1">
          <mxGeometry width="50" height="50" relative="1" as="geometry">
            <mxPoint x="760" y="218" as="sourcePoint" />
            <mxPoint x="1000" y="218" as="targetPoint" />
          </mxGeometry>
        </mxCell>
        <mxCell id="018Bsw0D69tQ_3L02aNU-37" value="&lt;div&gt;Revert to snapshot&lt;br&gt;Power up&lt;br&gt;Transfer CI scripts to dom0&lt;br&gt;and info about commit hash&lt;br&gt;&lt;/div&gt;" style="edgeLabel;html=1;align=center;verticalAlign=middle;resizable=0;points=[];" parent="018Bsw0D69tQ_3L02aNU-36" vertex="1" connectable="0">
          <mxGeometry x="-0.2267" y="1" relative="1" as="geometry">
            <mxPoint x="29" as="offset" />
          </mxGeometry>
        </mxCell>
        <mxCell id="018Bsw0D69tQ_3L02aNU-38" style="edgeStyle=orthogonalEdgeStyle;rounded=0;orthogonalLoop=1;jettySize=auto;html=1;exitX=0.5;exitY=1;exitDx=0;exitDy=0;endArrow=none;endFill=0;" parent="WIyWlLk6GJQsqaUBKTNV-1" source="018Bsw0D69tQ_3L02aNU-39" target="018Bsw0D69tQ_3L02aNU-40" edge="1">
          <mxGeometry relative="1" as="geometry" />
        </mxCell>
        <mxCell id="018Bsw0D69tQ_3L02aNU-39" value="sd-dev" style="rounded=1;whiteSpace=wrap;html=1;fontSize=12;glass=0;strokeWidth=1;shadow=0;" parent="WIyWlLk6GJQsqaUBKTNV-1" vertex="1">
          <mxGeometry x="1181" y="30" width="120" height="40" as="geometry" />
        </mxCell>
        <mxCell id="018Bsw0D69tQ_3L02aNU-40" value="sd-dev" style="rounded=1;whiteSpace=wrap;html=1;fontSize=12;glass=0;strokeWidth=1;shadow=0;" parent="WIyWlLk6GJQsqaUBKTNV-1" vertex="1">
          <mxGeometry x="1181" y="790" width="120" height="40" as="geometry" />
        </mxCell>
        <mxCell id="018Bsw0D69tQ_3L02aNU-41" value="" style="endArrow=classic;html=1;rounded=0;endFill=1;" parent="WIyWlLk6GJQsqaUBKTNV-1" edge="1">
          <mxGeometry width="50" height="50" relative="1" as="geometry">
            <mxPoint x="1001" y="218" as="sourcePoint" />
            <mxPoint x="1241" y="218" as="targetPoint" />
          </mxGeometry>
        </mxCell>
        <mxCell id="018Bsw0D69tQ_3L02aNU-42" value="dom0 transfer some CI &lt;br&gt;files to sd-dev&lt;br&gt;begin.py called on sd-dev&lt;br&gt;Repo is cloned and checked &lt;br&gt;out to commit hash" style="edgeLabel;html=1;align=center;verticalAlign=middle;resizable=0;points=[];" parent="018Bsw0D69tQ_3L02aNU-41" vertex="1" connectable="0">
          <mxGeometry x="-0.2267" y="1" relative="1" as="geometry">
            <mxPoint x="26" as="offset" />
          </mxGeometry>
        </mxCell>
        <mxCell id="018Bsw0D69tQ_3L02aNU-46" value="" style="endArrow=classic;html=1;rounded=0;" parent="WIyWlLk6GJQsqaUBKTNV-1" edge="1">
          <mxGeometry width="50" height="50" relative="1" as="geometry">
            <mxPoint x="1241" y="280" as="sourcePoint" />
            <mxPoint x="1001" y="280" as="targetPoint" />
          </mxGeometry>
        </mxCell>
        <mxCell id="018Bsw0D69tQ_3L02aNU-48" value="RPC call to dom0&lt;br&gt;to call runner.py" style="edgeLabel;html=1;align=center;verticalAlign=middle;resizable=0;points=[];" parent="018Bsw0D69tQ_3L02aNU-46" vertex="1" connectable="0">
          <mxGeometry x="-0.175" y="-2" relative="1" as="geometry">
            <mxPoint x="-22" as="offset" />
          </mxGeometry>
        </mxCell>
        <mxCell id="018Bsw0D69tQ_3L02aNU-49" value="" style="endArrow=classic;html=1;rounded=0;endFill=1;" parent="WIyWlLk6GJQsqaUBKTNV-1" edge="1">
          <mxGeometry width="50" height="50" relative="1" as="geometry">
            <mxPoint x="1001" y="340" as="sourcePoint" />
            <mxPoint x="1241" y="340" as="targetPoint" />
          </mxGeometry>
        </mxCell>
        <mxCell id="018Bsw0D69tQ_3L02aNU-50" value="dom0 calls sd-dev status.py&lt;br&gt;to request commit status &#39;Running&#39;" style="edgeLabel;html=1;align=center;verticalAlign=middle;resizable=0;points=[];" parent="018Bsw0D69tQ_3L02aNU-49" vertex="1" connectable="0">
          <mxGeometry x="-0.2267" y="1" relative="1" as="geometry">
            <mxPoint x="26" as="offset" />
          </mxGeometry>
        </mxCell>
        <mxCell id="018Bsw0D69tQ_3L02aNU-51" value="" style="endArrow=none;html=1;rounded=0;startArrow=classic;startFill=1;" parent="WIyWlLk6GJQsqaUBKTNV-1" edge="1">
          <mxGeometry width="50" height="50" relative="1" as="geometry">
            <mxPoint x="241" y="420" as="sourcePoint" />
            <mxPoint x="1241" y="420" as="targetPoint" />
          </mxGeometry>
        </mxCell>
        <mxCell id="018Bsw0D69tQ_3L02aNU-52" value="commit status POSTed to Github&lt;br&gt;&quot;Build is running&quot;" style="edgeLabel;html=1;align=center;verticalAlign=middle;resizable=0;points=[];" parent="018Bsw0D69tQ_3L02aNU-51" vertex="1" connectable="0">
          <mxGeometry x="0.798" relative="1" as="geometry">
            <mxPoint x="-19" as="offset" />
          </mxGeometry>
        </mxCell>
        <mxCell id="018Bsw0D69tQ_3L02aNU-53" value="" style="curved=1;endArrow=classic;html=1;rounded=0;labelBackgroundColor=none;" parent="WIyWlLk6GJQsqaUBKTNV-1" edge="1">
          <mxGeometry width="50" height="50" relative="1" as="geometry">
            <mxPoint x="1000" y="490" as="sourcePoint" />
            <mxPoint x="1000" y="450" as="targetPoint" />
            <Array as="points">
              <mxPoint x="1070" y="470" />
              <mxPoint x="1000" y="420" />
            </Array>
          </mxGeometry>
        </mxCell>
        <mxCell id="018Bsw0D69tQ_3L02aNU-54" value="runner.py runs&lt;br&gt;make clone; make dev; make test&lt;br&gt;&lt;div&gt;CI sequence&lt;/div&gt;" style="edgeLabel;html=1;align=center;verticalAlign=middle;resizable=0;points=[];labelBackgroundColor=none;" parent="018Bsw0D69tQ_3L02aNU-53" vertex="1" connectable="0">
          <mxGeometry x="-0.5184" y="3" relative="1" as="geometry">
            <mxPoint x="88" y="-5" as="offset" />
          </mxGeometry>
        </mxCell>
        <mxCell id="018Bsw0D69tQ_3L02aNU-55" value="" style="endArrow=classic;html=1;rounded=0;endFill=1;" parent="WIyWlLk6GJQsqaUBKTNV-1" edge="1">
          <mxGeometry width="50" height="50" relative="1" as="geometry">
            <mxPoint x="1001" y="530" as="sourcePoint" />
            <mxPoint x="1241" y="530" as="targetPoint" />
          </mxGeometry>
        </mxCell>
        <mxCell id="018Bsw0D69tQ_3L02aNU-56" value="dom0 calls sd-dev status.py&lt;br&gt;to request commit status &#39;success/failure&#39;&lt;br&gt;(with log file link)" style="edgeLabel;html=1;align=center;verticalAlign=middle;resizable=0;points=[];" parent="018Bsw0D69tQ_3L02aNU-55" vertex="1" connectable="0">
          <mxGeometry x="-0.2267" y="1" relative="1" as="geometry">
            <mxPoint x="26" as="offset" />
          </mxGeometry>
        </mxCell>
        <mxCell id="018Bsw0D69tQ_3L02aNU-57" value="" style="endArrow=none;html=1;rounded=0;startArrow=classic;startFill=1;" parent="WIyWlLk6GJQsqaUBKTNV-1" edge="1">
          <mxGeometry width="50" height="50" relative="1" as="geometry">
            <mxPoint x="241" y="590" as="sourcePoint" />
            <mxPoint x="1241" y="590" as="targetPoint" />
          </mxGeometry>
        </mxCell>
        <mxCell id="018Bsw0D69tQ_3L02aNU-58" value="commit status POSTed to Github&lt;br&gt;&quot;Build success/failure&lt;br&gt;(with hyperlink)&quot;" style="edgeLabel;html=1;align=center;verticalAlign=middle;resizable=0;points=[];" parent="018Bsw0D69tQ_3L02aNU-57" vertex="1" connectable="0">
          <mxGeometry x="0.798" relative="1" as="geometry">
            <mxPoint x="-19" as="offset" />
          </mxGeometry>
        </mxCell>
        <mxCell id="018Bsw0D69tQ_3L02aNU-59" value="" style="endArrow=classic;html=1;rounded=0;endFill=1;" parent="WIyWlLk6GJQsqaUBKTNV-1" edge="1">
          <mxGeometry width="50" height="50" relative="1" as="geometry">
            <mxPoint x="500" y="620" as="sourcePoint" />
            <mxPoint x="760" y="620" as="targetPoint" />
          </mxGeometry>
        </mxCell>
        <mxCell id="018Bsw0D69tQ_3L02aNU-60" value="Request the log file from dom0&lt;br&gt;via vmtoolsd and store it&lt;br&gt;in website dir (hyperlinked log file in&lt;br&gt;commit status now works)" style="edgeLabel;html=1;align=center;verticalAlign=middle;resizable=0;points=[];" parent="018Bsw0D69tQ_3L02aNU-59" vertex="1" connectable="0">
          <mxGeometry x="-0.2267" y="1" relative="1" as="geometry">
            <mxPoint x="29" y="30" as="offset" />
          </mxGeometry>
        </mxCell>
        <mxCell id="018Bsw0D69tQ_3L02aNU-61" value="" style="endArrow=none;html=1;rounded=0;endFill=0;startArrow=classic;startFill=1;" parent="WIyWlLk6GJQsqaUBKTNV-1" edge="1">
          <mxGeometry width="50" height="50" relative="1" as="geometry">
            <mxPoint x="760" y="650" as="sourcePoint" />
            <mxPoint x="1000" y="650" as="targetPoint" />
          </mxGeometry>
        </mxCell>
        <mxCell id="018Bsw0D69tQ_3L02aNU-62" value="Log file fetched from dom0" style="edgeLabel;html=1;align=center;verticalAlign=middle;resizable=0;points=[];" parent="018Bsw0D69tQ_3L02aNU-61" vertex="1" connectable="0">
          <mxGeometry x="-0.2267" y="1" relative="1" as="geometry">
            <mxPoint x="29" as="offset" />
          </mxGeometry>
        </mxCell>
        <mxCell id="018Bsw0D69tQ_3L02aNU-64" value="" style="endArrow=classic;html=1;rounded=0;endFill=1;" parent="WIyWlLk6GJQsqaUBKTNV-1" edge="1">
          <mxGeometry width="50" height="50" relative="1" as="geometry">
            <mxPoint x="500" y="710" as="sourcePoint" />
            <mxPoint x="760" y="710" as="targetPoint" />
          </mxGeometry>
        </mxCell>
        <mxCell id="018Bsw0D69tQ_3L02aNU-65" value="Request the VM be shut down" style="edgeLabel;html=1;align=center;verticalAlign=middle;resizable=0;points=[];" parent="018Bsw0D69tQ_3L02aNU-64" vertex="1" connectable="0">
          <mxGeometry x="-0.2267" y="1" relative="1" as="geometry">
            <mxPoint x="29" as="offset" />
          </mxGeometry>
        </mxCell>
        <mxCell id="018Bsw0D69tQ_3L02aNU-66" value="" style="endArrow=classic;html=1;rounded=0;endFill=1;" parent="WIyWlLk6GJQsqaUBKTNV-1" edge="1">
          <mxGeometry width="50" height="50" relative="1" as="geometry">
            <mxPoint x="760" y="710" as="sourcePoint" />
            <mxPoint x="1000" y="710" as="targetPoint" />
          </mxGeometry>
        </mxCell>
        <mxCell id="018Bsw0D69tQ_3L02aNU-67" value="Shut down" style="edgeLabel;html=1;align=center;verticalAlign=middle;resizable=0;points=[];" parent="018Bsw0D69tQ_3L02aNU-66" vertex="1" connectable="0">
          <mxGeometry x="-0.2267" y="1" relative="1" as="geometry">
            <mxPoint x="29" as="offset" />
          </mxGeometry>
        </mxCell>
        <mxCell id="018Bsw0D69tQ_3L02aNU-69" value="&lt;div&gt;Github&lt;/div&gt;" style="rounded=1;whiteSpace=wrap;html=1;fontSize=12;glass=0;strokeWidth=1;shadow=0;" parent="WIyWlLk6GJQsqaUBKTNV-1" vertex="1">
          <mxGeometry x="180" y="30" width="120" height="40" as="geometry" />
        </mxCell>
        <mxCell id="018Bsw0D69tQ_3L02aNU-70" value="Github" style="rounded=1;whiteSpace=wrap;html=1;fontSize=12;glass=0;strokeWidth=1;shadow=0;" parent="WIyWlLk6GJQsqaUBKTNV-1" vertex="1">
          <mxGeometry x="180" y="790" width="120" height="40" as="geometry" />
        </mxCell>
        <mxCell id="ZTwvmmCbS7xm495610pl-2" value="" style="endArrow=none;html=1;rounded=0;endFill=0;startArrow=classic;startFill=1;" parent="WIyWlLk6GJQsqaUBKTNV-1" edge="1">
          <mxGeometry width="50" height="50" relative="1" as="geometry">
            <mxPoint x="240" y="183" as="sourcePoint" />
            <mxPoint x="500" y="183" as="targetPoint" />
          </mxGeometry>
        </mxCell>
        <mxCell id="ZTwvmmCbS7xm495610pl-3" value="&lt;div&gt;commit status POSTed to GitHub&lt;/div&gt;&lt;div&gt;&quot;Build is queued&quot;&lt;br&gt;&lt;/div&gt;" style="edgeLabel;html=1;align=center;verticalAlign=middle;resizable=0;points=[];" parent="ZTwvmmCbS7xm495610pl-2" vertex="1" connectable="0">
          <mxGeometry x="-0.2267" y="1" relative="1" as="geometry">
            <mxPoint x="29" as="offset" />
          </mxGeometry>
        </mxCell>
      </root>
    </mxGraphModel>
  </diagram>
</mxfile>
